<svg width="500" height="250" viewBox="0 0 500 250" fill="none" xmlns="http://www.w3.org/2000/svg">
<g filter="url(#filter0_d_1032_262)">
<path d="M216.942 220.948C211.979 219.286 202.224 213.84 195.514 208.984C189.585 204.695 188.124 204.159 181.022 203.663C173.173 203.115 173.101 203.136 169.483 206.998C167.481 209.136 163.389 212.169 160.389 213.74C155.652 216.22 154.021 216.508 147.974 215.929C131.198 214.323 112.55 197.305 112.613 183.657C112.623 181.489 114.284 175.408 116.303 170.143C118.323 164.878 119.811 160.384 119.61 160.155C119.409 159.926 115.415 162.896 110.736 166.753C106.056 170.611 100.646 174.54 98.7118 175.485C94.4788 177.554 89.9521 176.66 89.1715 173.601C88.0714 169.29 90.3143 155.712 93.1896 149.276C94.7873 145.699 95.9147 142.589 95.6947 142.363C94.4735 141.112 68.484 139.587 58.1509 140.16C41.6193 141.078 38.0234 141.815 37.2064 144.453C35.6826 149.373 27.0116 149.92 24.5727 145.25C21.597 139.552 26.8836 134.263 32.9441 136.875C35.3418 137.908 38.3223 137.994 44.4197 137.207C52.4228 136.175 85.4527 136.818 94.5158 138.183L99.0127 138.86L105.202 130.698C111.452 122.455 111.981 120.593 108.074 120.593C101.327 120.593 89.7137 111.674 82.9549 101.302C76.313 91.1095 77.0979 82.8928 85.4531 75.1515C91.352 69.6861 97.1121 66.9465 114.195 61.4815C132.558 55.6069 143.052 50.2675 146.781 44.901C148.75 42.0665 149.231 39.9609 149.091 34.7862C148.876 26.8204 150.007 26.5026 156.005 32.8447C161.537 38.6951 162.719 39.3208 169.855 40.1796C173.088 40.5686 179.024 42.308 183.045 44.0449C187.067 45.7817 191.991 47.3728 193.988 47.5805C197.33 47.9283 197.679 47.6577 198.375 44.1738C199.943 36.3317 204.07 35.2156 213.891 39.977C217.991 41.9646 220.993 42.7396 222.796 42.2758C224.348 41.8769 226.82 42.2762 228.55 43.2051C231.204 44.6299 232.353 44.6233 237.724 43.1525C241.288 42.1767 249.168 41.4185 256.503 41.3458C267.671 41.2351 270.225 41.5935 278.481 44.43C296.97 50.783 309.25 58.6455 309.25 64.1304C309.25 65.2634 308.302 67.0695 307.143 68.144C304.631 70.474 291.732 74.808 281.777 76.6669C271.05 78.67 271.112 78.6327 273.881 81.4707C276.075 83.7185 276.581 83.7992 279.852 82.4219C290.329 78.0097 294.815 77.4867 305.31 79.4534C317.916 81.8158 323.024 84.1398 329.424 90.4242C334.012 94.9289 334.525 95.942 334.525 100.497C334.525 104.443 333.918 106.145 331.777 108.206C329.516 110.383 329.045 111.861 329.114 116.567C329.233 124.567 331.275 130.665 334.72 133.3C340.178 137.476 346.557 137.085 365.678 131.401C388.689 124.561 394.385 124.449 406.603 130.597C419.646 137.16 419.656 137.161 424.651 132.537C430.341 127.268 433.482 126.595 441.787 128.862C445.546 129.889 449.944 130.729 451.56 130.729C454.379 130.729 454.468 130.546 453.755 126.224C452.82 120.549 454.12 120.403 463.817 125.098C467.654 126.956 471.436 128.476 472.22 128.476C473.759 128.476 476.283 130.665 476.283 132C476.283 133.769 472.695 136.359 470.245 136.359C468.823 136.359 466.146 137.665 464.296 139.26C460.303 142.704 457.391 142.47 456.508 138.635C455.944 136.185 454.961 135.699 448.218 134.535C444.011 133.809 438.802 132.857 436.644 132.42C433.113 131.705 432.196 132.089 427.511 136.245C424.631 138.799 421.161 140.864 419.747 140.864C418.341 140.864 412.808 138.587 407.451 135.803C394.197 128.917 388.416 128.867 366.953 135.452C344.485 142.345 335.504 141.916 328.841 133.629C326.511 130.732 324.218 121.454 324.912 117.734C325.546 114.334 323.557 114.08 320.793 117.209C318.871 119.386 318.915 119.692 322.217 127.063C331.177 147.065 328.937 160.074 315.41 166.591C312.768 167.863 308.076 169.248 304.983 169.669L299.36 170.433V178.345C299.36 186.108 299.277 186.338 294.975 190.532C287.593 197.728 279.462 198.349 268.39 192.561C265.965 191.293 263.88 190.418 263.755 190.616C263.63 190.814 262.579 193.21 261.418 195.94C257.466 205.241 253.581 209.503 245.715 213.168C241.675 215.05 236.224 217.608 233.601 218.854C228.211 221.413 221.027 222.316 216.942 220.948ZM228.57 216.462C228.245 215.924 225.996 215.159 223.572 214.762C218.809 213.981 202.402 206.185 199.123 203.144C197.596 201.728 196.802 201.593 195.836 202.583C195.135 203.302 194.775 204.026 195.037 204.193C195.299 204.361 197.068 205.611 198.968 206.972C200.867 208.333 205.73 211.245 209.773 213.444C215.612 216.618 218.363 217.44 223.142 217.44C226.452 217.44 228.894 217 228.57 216.462ZM158.145 210.686C160.639 209.449 164.043 206.978 165.71 205.195L168.741 201.953L160.215 197.241L151.69 192.528L148.546 195.975C144.338 200.589 140.568 200.464 134.223 195.499C128.09 190.701 123.35 181.414 122.656 172.837C122.387 169.518 121.766 167.056 121.275 167.367C119.979 168.188 116.942 179.479 116.942 183.475C116.942 191.13 122.377 199.172 131.949 205.683C142.643 212.958 150.53 214.464 158.145 210.686ZM237.374 208.431C238.077 206.263 239.15 202.463 239.757 199.985C240.364 197.508 241.977 192.891 243.34 189.726L245.82 183.971L241.123 179.157C236.802 174.729 236.337 174.514 235.315 176.466C233.099 180.699 223.869 188.526 213.921 194.609C208.33 198.028 203.755 201.244 203.755 201.756C203.755 203.099 216.72 209.239 223.658 211.181C232.841 213.752 235.843 213.15 237.374 208.431ZM248.497 207.408C252.517 204.424 258.7 194.435 258.7 190.926C258.7 190.213 256.693 188.821 254.24 187.833L249.78 186.038L246.675 193.012C243.448 200.261 241.33 210.684 243.084 210.684C243.634 210.684 246.07 209.21 248.497 207.408ZM185.074 201.161C185.074 200.879 183.838 198.782 182.327 196.5C179.754 192.614 178.977 189.378 179.415 184.369C179.668 181.486 176.261 176.156 170.437 170.323L165.558 165.435L163.777 168.039C161.399 171.519 161.474 171.957 165.285 176.889C169.538 182.392 174.061 192.382 174.074 196.304C174.083 198.739 174.715 199.522 177.107 200.062C178.769 200.438 180.623 200.914 181.228 201.121C182.939 201.706 185.074 201.729 185.074 201.161ZM193.822 199.704C193.748 198.282 183.943 187.819 183.3 188.477C181.759 190.056 189.688 200.548 192.422 200.548C193.216 200.548 193.846 200.168 193.822 199.704ZM214.044 191.861C221.933 186.958 229.242 180.327 232.236 175.356C234.045 172.352 234.267 170.469 233.739 162.602C233.318 156.326 232.641 153.184 231.624 152.784C229.838 152.081 229.794 152.631 231.226 157.751C234.716 170.219 221.42 178.883 203.206 176.008C198.975 175.341 194.49 174.473 193.239 174.08C191.61 173.568 189.955 174.331 187.405 176.772C183.091 180.902 183.341 181.598 192.907 192.077L199.561 199.366L203.43 197.71C205.558 196.798 210.335 194.167 214.044 191.861ZM169.689 194.873C169.689 191.067 161.982 176.9 159.912 176.9C158.386 176.9 153.852 188.148 154.932 189.255C156.233 190.587 167.766 197.122 168.865 197.15C169.318 197.161 169.689 196.136 169.689 194.873ZM146.481 192.018L148.706 189.119L145.782 183.009C143.967 179.217 142.156 176.9 141.007 176.9C138.378 176.9 137.821 174.618 137.821 163.857V154.377L134.25 154.394C129.097 154.419 128.276 155.333 126.986 162.482C124.814 174.527 128.248 185.828 135.976 192.071C140.445 195.681 143.682 195.665 146.481 192.018ZM287.968 190.83C293.52 188.13 294.964 185.319 294.964 177.212V170.143H291C287.646 170.143 287.162 170.446 287.855 172.114C288.305 173.198 289.188 175.934 289.819 178.196C291.253 183.342 288.926 187.568 283.34 189.959C281.272 190.845 279.579 191.816 279.579 192.118C279.579 193.307 284.393 192.568 287.968 190.83ZM284.099 184.656C288.938 179.697 283.98 168.66 276.316 167.333C273.925 166.919 271.469 166.897 270.858 167.283C269.59 168.087 265.294 181.688 265.294 184.901C265.294 186.806 266.179 187.035 273.536 187.035C280.458 187.035 282.149 186.654 284.099 184.656ZM154.663 178.195L157.45 172.733L153.629 167.215C151.528 164.18 149.4 161.55 148.9 161.369C147.829 160.983 146.649 164.996 146.627 169.094C146.607 172.996 149.761 183.657 150.935 183.657C151.453 183.657 153.131 181.199 154.663 178.195ZM263.777 174.032C265.134 169.744 266.154 166.188 266.043 166.128C265.933 166.068 263.419 164.659 260.456 162.997C257.494 161.335 254.949 160.109 254.803 160.273C254.656 160.437 254.36 164.44 254.146 169.168C253.781 177.202 253.935 177.919 256.503 180.108C258.014 181.396 259.713 182.31 260.28 182.138C260.847 181.967 262.42 178.319 263.777 174.032ZM248.184 178.153C248.515 177.604 247.967 176.464 246.967 175.62C245.966 174.775 243.746 172.108 242.034 169.692C239.186 165.676 238.92 165.534 238.92 168.028C238.92 169.528 240.44 172.645 242.297 174.954C245.72 179.21 247.096 179.957 248.184 178.153ZM185.454 174.449C187.36 173.101 189.083 171.878 189.283 171.732C189.482 171.585 188.935 170.28 188.068 168.833C187.201 167.386 185.889 163.288 185.154 159.726L183.817 153.251H177.247C170.762 153.251 170.655 153.303 169.051 157.238L167.425 161.224L174.327 169.051C178.122 173.356 181.399 176.883 181.608 176.889C181.817 176.894 183.547 175.797 185.454 174.449ZM102.297 168.266C107.366 164.319 118.16 155.652 121.063 153.198C121.818 152.559 122.437 150.613 122.437 148.873C122.437 145.766 122.274 145.686 113.371 144.411C108.384 143.697 103.48 143.114 102.471 143.115C98.5043 143.118 92.8068 157.517 92.7793 167.609C92.7625 173.793 94.9999 173.947 102.297 168.266ZM218.885 170.652C227.207 167.089 229.753 161.959 226.656 154.993C225.04 151.358 223.5 151.375 220.156 155.063C217.333 158.177 204.794 166.941 199.879 169.236C197.268 170.455 197.171 170.689 198.981 171.419C202.665 172.905 214.707 172.441 218.885 170.652ZM250.991 163.254L251.008 156.928L245.514 155.815C241.037 154.908 240.019 154.991 240.019 156.265C240.019 159.004 242.883 164.954 246.059 168.814C249.861 173.436 250.967 172.189 250.991 163.254ZM202.912 164.859C207.159 162.573 213.346 158.161 216.662 155.055L222.691 149.409L219.355 147.79C216.314 146.314 215.214 146.426 206.866 149.065C201.831 150.657 195.303 152.29 192.358 152.694L187.006 153.43L187.551 158.392C188.177 164.084 190.919 169.017 193.455 169.017C194.41 169.017 198.666 167.146 202.912 164.859ZM160.859 165.713C161.485 164.514 161.997 163.271 161.997 162.95C161.997 162.002 154.281 158.531 153.637 159.19C152.941 159.904 157.793 167.856 158.936 167.877C159.368 167.885 160.234 166.911 160.859 165.713ZM293.865 163.949C293.865 160.583 293.196 160.487 289.087 163.263C285.813 165.476 286.505 166.5 291.393 166.676C293.321 166.745 293.865 166.144 293.865 163.949ZM316.07 163.21C325.36 157.99 327.14 146.354 320.832 132.087C317.522 124.603 316.23 124.272 315.523 130.729C315.047 135.066 311.156 143.588 308.983 145.051C308.223 145.563 305.233 148.542 302.338 151.671C297.281 157.138 297.104 157.551 297.83 162.204L298.586 167.047L304.969 166.454C308.64 166.113 313.358 164.734 316.07 163.21ZM144.22 158.515C145.396 155.685 145.328 155.374 143.605 155.709C142.284 155.965 141.555 157.335 141.314 160.017C140.93 164.297 142.061 163.713 144.22 158.515ZM287.812 159.677C292.148 157.161 293.894 153.956 291.991 152.007C291.416 151.417 288.761 151.905 285.57 153.188C282.577 154.391 279.189 155.67 278.041 156.032C276.058 156.655 276.081 156.827 278.508 159.474C281.625 162.875 282.278 162.889 287.812 159.677ZM264.592 159.445C264.244 158.516 263.271 157.756 262.429 157.756C260.526 157.756 260.414 159.62 262.272 160.388C264.698 161.392 265.239 161.172 264.592 159.445ZM165.726 157.1C167.288 152.929 166.518 152.125 160.963 152.125C154.029 152.125 153.119 153.683 158.389 156.533C163.484 159.289 164.866 159.396 165.726 157.1ZM261.455 153.239C262.217 151.975 256.269 145.368 254.368 145.368C253.284 145.368 253.489 148.238 254.911 152.97C255.417 154.651 260.478 154.86 261.455 153.239ZM248.244 148.465C247.189 141.809 246.16 141.215 243.455 145.7C240.393 150.777 240.505 151.88 244.14 152.445C245.802 152.703 247.576 152.99 248.083 153.082C248.589 153.175 248.662 151.097 248.244 148.465ZM281.257 144.812C286.568 139.492 289.135 136.186 288.202 135.868C285.539 134.96 272.474 131.636 270.886 131.462C269.162 131.273 266.449 140.181 266.414 146.149C266.395 149.422 269.436 153.251 272.055 153.251C272.483 153.251 276.624 149.453 281.257 144.812ZM138.293 150.001C138.625 149.452 137.788 148.699 136.435 148.327C132.314 147.195 130.129 147.535 130.129 149.31C130.129 151.181 137.22 151.781 138.293 150.001ZM286.867 148.655C288.903 147.365 290.568 145.592 290.568 144.713C290.568 142.236 289.102 142.785 284.433 147.011C279.663 151.327 281.108 152.302 286.867 148.655ZM304.137 144.232C309.573 138.216 312.52 132.394 312.54 127.632C312.549 125.61 311.775 125.853 307.452 129.233C304.256 131.731 303.896 132.409 305.328 133.23C307.983 134.753 307.483 135.856 301.557 141.536C296.651 146.239 294.38 150.999 297.043 150.999C297.583 150.999 300.775 147.954 304.137 144.232ZM182.106 144.391C181.984 141.686 181.622 139.203 181.3 138.874C180.979 138.544 179.106 138.748 177.138 139.326C174.13 140.21 173.455 141.042 172.898 144.553C172.534 146.85 172.51 149.01 172.846 149.354C173.181 149.697 175.452 149.828 177.891 149.644L182.327 149.31L182.106 144.391ZM169.796 145.087C170.806 141.186 168.766 140.957 164.15 144.454C159.813 147.74 160.051 148.956 164.946 148.533C168.307 148.243 169.131 147.658 169.796 145.087ZM201.603 146.97C205.795 145.993 209.458 144.808 209.742 144.338C210.025 143.867 206.693 141.878 202.336 139.918C188.262 133.586 182.988 135.589 185.767 146.213C186.587 149.351 190.571 149.541 201.603 146.97ZM237.142 139.291C240.516 128.203 240.689 124.918 238.134 120.486C235.657 116.188 234.922 116.358 234.014 121.438C233.599 123.761 232.036 127.925 230.539 130.692C228.359 134.724 227.963 136.624 228.544 140.264C229.225 144.529 231.673 148.747 233.466 148.747C233.906 148.747 235.56 144.492 237.142 139.291ZM155.855 143.679C157.836 142.131 160.011 140.864 160.689 140.864C161.366 140.864 163.669 139.291 165.805 137.369C168.719 134.747 169.685 132.989 169.673 130.33C169.646 124.721 168.68 123.956 163.795 125.677C158.409 127.575 153.498 132.284 150.894 138.048C147.024 146.613 149.095 148.963 155.855 143.679ZM144.78 137.047C147.609 132.47 151.83 126.96 154.161 124.802C161.179 118.304 161.221 118.341 146.811 118.341H133.692L132.604 121.438C132.006 123.141 131.447 128.933 131.362 134.309C131.215 143.619 131.325 144.106 133.69 144.572C139.136 145.646 139.701 145.261 144.78 137.047ZM263.061 138.893C263.839 135.332 264.731 131.733 265.045 130.896C265.69 129.173 260.507 131.584 254.946 135.595L251.741 137.906L255.953 141.637C258.27 143.689 260.499 145.368 260.906 145.368C261.314 145.368 262.284 142.454 263.061 138.893ZM245.428 135.069C243.919 132.179 243.437 132.409 241.611 136.886C239.19 142.826 239.687 143.864 243.269 140.347C245.864 137.799 246.298 136.736 245.428 135.069ZM124.086 136.641C124.463 133.699 125.499 128.864 126.388 125.896C127.278 122.929 127.753 120.083 127.444 119.571C127.136 119.06 124.614 119.174 121.84 119.824C117.421 120.861 115.987 122.037 110.275 129.313C106.689 133.881 103.755 138.025 103.755 138.521C103.755 139.395 114.437 141.514 120.446 141.833C123.172 141.978 123.454 141.575 124.086 136.641ZM212.53 138.578C207.258 134.461 202.999 132.604 200.877 133.495C199.206 134.197 200.27 135.089 206.434 138.153C214.334 142.081 217.281 142.286 212.53 138.578ZM298.742 136.477C297.86 135.573 293.916 140.038 294.598 141.167C294.98 141.801 296.141 141.125 297.244 139.626C298.325 138.157 298.999 136.74 298.742 136.477ZM222.437 136.007C222.437 135.194 220.955 133.074 219.144 131.296C215.976 128.185 215.722 128.127 212.387 129.745L208.921 131.427L213.756 134.412C219.053 137.683 222.437 138.305 222.437 136.007ZM180.477 131.573C180.934 127.496 179.207 127.646 176.221 131.943L173.813 135.41L176.971 135.04C179.489 134.745 180.199 134.043 180.477 131.573ZM186.173 132.484C186.173 132.211 185.678 131.674 185.074 131.292C184.47 130.909 183.975 131.132 183.975 131.788C183.975 132.444 184.47 132.981 185.074 132.981C185.678 132.981 186.173 132.757 186.173 132.484ZM229.046 127.319C231.303 122.783 232.041 113.837 230.157 113.837C229.568 113.837 228.342 115.312 227.432 117.116C226.522 118.92 224.17 121.684 222.206 123.259L218.635 126.123L221.803 129.512C223.545 131.376 225.397 132.631 225.917 132.301C226.438 131.972 227.846 129.729 229.046 127.319ZM257.126 130.535C260.882 128.264 261.029 127.981 259.177 126.593C256.332 124.461 255.668 124.686 253.784 128.42C251.047 133.843 251.344 134.03 257.126 130.535ZM302.86 127.65C304.227 125.976 299.885 123.972 294.893 123.972C292.054 123.972 291.667 124.37 291.667 127.294C291.667 131.865 294.535 133.364 298.6 130.92C300.32 129.885 302.237 128.414 302.86 127.65ZM195.349 131.085C196.222 130.19 190.068 127.328 187.42 127.397C186.421 127.424 187.33 128.402 189.47 129.602C193.815 132.04 194.298 132.162 195.349 131.085ZM287.688 127.632C287.289 125.928 286.844 124.384 286.699 124.201C286.148 123.5 271.887 126.656 271.887 127.479C271.887 128.52 279.821 130.44 284.82 130.608C288.2 130.721 288.37 130.545 287.688 127.632ZM173.65 125.403C172.533 124.258 171.611 125.982 172.528 127.501C173.22 128.649 173.479 128.65 173.851 127.506C174.106 126.723 174.015 125.777 173.65 125.403ZM208.657 126.959C210.97 125.226 210.413 124.69 203.816 122.305C198.59 120.415 198.291 121.016 202.313 125.318C205.704 128.946 205.928 129.004 208.657 126.959ZM196.372 123.032C194.832 120.28 193.29 119.287 189.141 118.375C186.24 117.737 183.644 117.215 183.372 117.215C183.099 117.215 182.876 118.482 182.876 120.03C182.876 121.943 183.493 122.861 184.799 122.893C185.857 122.918 189.195 123.857 192.217 124.978C195.239 126.099 197.85 126.907 198.02 126.773C198.19 126.639 197.449 124.955 196.372 123.032ZM249.41 119.57C245.843 115.914 245.053 116.938 247.262 122.355C248.946 126.484 249.121 126.6 250.59 124.541C251.974 122.602 251.847 122.067 249.41 119.57ZM268.34 120.593C269.404 116.297 269.337 116.089 266.887 116.089C265.474 116.089 262.957 117.288 261.295 118.753L258.272 121.418L261.508 123.213C266.29 125.865 267.112 125.55 268.34 120.593ZM311.448 118.246C311.448 116.225 303.222 104.803 301.807 104.86C300.463 104.913 293.402 117.618 294.493 118.02C295.054 118.227 297.986 119.818 301.008 121.555L306.503 124.714L308.975 122.457C310.335 121.216 311.448 119.321 311.448 118.246ZM222.346 117.712C226.628 112.714 226.447 109.852 221.86 110.003C219.206 110.09 205.99 113.301 198.261 115.736C197.354 116.021 200.816 117.899 205.953 119.909C216.326 123.968 217.072 123.868 222.346 117.712ZM281.961 122.085C291.535 121.06 290.539 119.911 277.227 116.623C274.054 115.84 273.656 116.213 272.533 121.017C271.888 123.774 272.057 124.146 273.664 123.514C274.702 123.106 278.436 122.463 281.961 122.085ZM176.283 118.904C176.283 117.853 175.245 117.215 173.536 117.215C170.662 117.215 169.798 118.87 172.162 119.848C174.779 120.93 176.283 120.586 176.283 118.904ZM258.108 115.535C259.898 114.036 261.134 112.607 260.855 112.359C260.577 112.112 257.038 110.89 252.992 109.645C247.085 107.827 245.526 107.676 245.076 108.876C244.584 110.189 252.566 118.408 254.228 118.301C254.572 118.278 256.318 117.034 258.108 115.535ZM110.898 114.897C108.481 113.671 105.946 111.907 105.265 110.976C103.421 108.454 104.441 78.5083 106.51 74.4073C107.387 72.6689 109.97 69.6517 112.249 67.7025L116.393 64.1584L113.096 64.944C99.907 68.0871 87.7159 76.0754 83.9536 84.0398C81.5891 89.0452 81.5741 89.3181 83.397 94.2093C87.4572 105.104 102.294 117.275 111.389 117.17L115.294 117.125L110.898 114.897ZM238.12 109.024C236.03 105.357 232.366 104.145 231.492 106.832C231.234 107.624 232.923 110.061 235.246 112.246C238.498 115.305 239.553 115.809 239.83 114.438C240.028 113.458 239.259 111.022 238.12 109.024ZM294.14 108.823C296.406 104.851 298.261 100.33 298.261 98.7762C298.261 93.7811 300.255 94.4744 304.237 100.854C306.375 104.278 308.543 107.08 309.056 107.08C309.569 107.08 310.067 105.024 310.163 102.512C310.469 94.5044 313.942 91.263 319.289 93.9946C321.551 95.1504 322.752 96.656 327.6 104.41C328.743 106.24 329.066 106.295 330.055 104.828C332.218 101.62 331.385 96.2873 328.214 93.0376C320.726 85.3635 301.884 79.8963 290.791 82.1792C287.43 82.871 283.514 84.2198 282.089 85.1765L279.498 86.9161L284.466 92.8748C290.811 100.486 293.13 105.952 291.677 109.87C291.085 111.464 289.852 113.063 288.937 113.423C286.929 114.213 286.721 116.098 288.645 116.067C289.401 116.056 291.873 112.796 294.14 108.823ZM322.232 111.646L324.774 109.418L322.563 104.294C318.497 94.8756 314.14 96.3414 314.381 107.047C314.604 116.989 315.522 117.527 322.232 111.646ZM159.799 113.837C159.799 112.385 145.508 112.385 143.316 113.837C142.178 114.59 144.474 114.934 150.733 114.946C156.056 114.956 159.799 114.498 159.799 113.837ZM125.733 112.081C125.733 111.115 125.239 110.639 124.634 111.021C124.03 111.404 123.535 112.194 123.535 112.777C123.535 113.36 124.03 113.837 124.634 113.837C125.239 113.837 125.733 113.047 125.733 112.081ZM139.291 104.859C142.713 100.595 145.514 96.5936 145.514 95.9662C145.514 92.7865 142.542 93.9871 136.127 99.7595C130.629 104.705 129.03 106.842 129.03 109.24C129.03 115.841 131.227 114.903 139.291 104.859ZM190.191 113.154C192.028 112.649 192.664 111.449 193.018 107.821C193.269 105.245 193.687 102.39 193.945 101.476C194.898 98.1019 190.046 99.1369 185.898 103.192C182.086 106.92 180.633 111.162 182.51 113.086C183.404 114.002 186.992 114.034 190.191 113.154ZM121.789 109.246C124.255 106.243 124.634 104.733 124.634 97.9286C124.634 85.811 127.844 81.179 136.242 81.179H140.302L139.548 75.3536C138.297 65.6857 137.62 65.0311 129.559 65.6942C121.721 66.3389 114.579 69.8221 111.039 74.7267C109.149 77.3448 108.684 80.1513 108.145 92.1816C107.792 100.066 107.708 107.166 107.958 107.959C108.557 109.862 113.582 112.609 116.57 112.665C117.911 112.691 120.183 111.202 121.789 109.246ZM213.645 107.981C216.992 106.69 216.081 106.103 206.095 103.109C199.247 101.056 199.061 101.057 197.578 103.134C196.745 104.302 196.063 106.885 196.063 108.873V112.488L203.481 110.764C207.56 109.816 212.134 108.564 213.645 107.981ZM286.361 109.721C289.086 107.194 288.892 105.031 285.47 99.74C279.032 89.7872 275.511 87.4365 271.583 90.4696C269.893 91.7749 269.918 92.3606 271.923 98.5273C273.112 102.185 274.085 106.619 274.085 108.381C274.085 111.444 274.309 111.584 279.218 111.584C282.453 111.584 285.095 110.895 286.361 109.721ZM150.784 108.67L153.308 108.137L150.984 104.793C149.706 102.954 148.282 101.449 147.82 101.449C147.358 101.449 145.365 103.509 143.392 106.026L139.803 110.602L144.032 109.902C146.358 109.517 149.396 108.963 150.784 108.67ZM173.353 108.413C175.034 106.509 174.985 105.909 172.645 99.7195C170.33 93.5934 169.769 92.9631 165.515 91.7009C159.875 90.0275 159.814 90.3474 163.736 101.025C167.336 110.826 169.651 112.605 173.353 108.413ZM269.689 106.685C269.689 102.908 267.867 96.0333 266.425 94.373C266.004 93.8876 261.745 94.963 256.96 96.7627C250.196 99.3071 248.183 100.568 247.91 102.431C247.716 103.749 247.964 104.847 248.459 104.871C248.954 104.896 253.316 106.135 258.151 107.626C269.634 111.168 269.689 111.163 269.689 106.685ZM162.297 108.65C162.972 107.958 157.938 92.6577 156.472 90.9459C155.248 89.5168 150.771 96.6635 151.481 98.9147C152.235 101.31 159.303 109.332 160.659 109.332C161.193 109.332 161.93 109.025 162.297 108.65ZM180.224 99.5568C180.798 96.6126 180.522 95.9195 178.513 95.2661C175.088 94.1522 174.632 95.1969 176.292 100.351C177.884 105.295 179.154 105.038 180.224 99.5568ZM224.376 103.47C223.557 100.952 214.538 96.9448 209.691 96.9448C202.085 96.9448 203.089 98.8634 212.247 101.831C222.024 104.999 225.004 105.402 224.376 103.47ZM135.749 95.7073C144.545 87.8985 144.146 83.4507 134.81 85.2455C131.833 85.8179 130.659 86.8039 129.463 89.7365C127.925 93.5094 127.344 101.449 128.606 101.449C128.977 101.449 132.192 98.8654 135.749 95.7073ZM185.623 98.0709C185.997 97.4516 185.779 96.9448 185.139 96.9448C184.499 96.9448 183.975 97.4516 183.975 98.0709C183.975 98.6903 184.193 99.197 184.46 99.197C184.726 99.197 185.25 98.6903 185.623 98.0709ZM246.41 94.9317C253.914 85.9238 257.601 81.2691 257.601 80.8043C257.601 80.5184 251.544 80.4534 244.14 80.6599C236.736 80.8663 230.799 81.4477 230.947 81.9517C231.095 82.4558 232.804 86.571 234.745 91.0966C238.019 98.7314 238.475 99.2767 241.069 98.6555C242.607 98.2874 245.01 96.6116 246.41 94.9317ZM201.557 94.6925C203.927 93.4538 207.713 92.4403 209.971 92.4403H214.076L208.762 88.987L203.448 85.5336L199.206 89.7786C192.518 96.4715 193.646 98.8288 201.557 94.6925ZM226.788 91.0326C224.926 87.7809 222.853 83.9681 222.182 82.5597C220.974 80.0269 216.395 77.9855 215.039 79.3753C214.653 79.7707 216.085 81.9853 218.22 84.2966C220.356 86.6078 223.473 90.3992 225.147 92.7218C229.635 98.9461 230.695 97.855 226.788 91.0326ZM194.824 89.6501C197.319 86.8768 199.36 84.1479 199.36 83.586C199.36 82.0575 193.885 78.678 192.373 79.2727C191.649 79.5571 189.63 82.6815 187.885 86.2157C185.258 91.5375 184.98 92.8148 186.267 93.6498C188.956 95.3943 190.166 94.8288 194.824 89.6501ZM259.25 92.1714C264.195 90.4243 264.829 89.3946 262.549 86.813L260.516 84.5108L257.316 87.631C255.556 89.3471 253.606 91.7148 252.983 92.8926C252.014 94.7263 252.146 94.9121 253.902 94.1851C255.03 93.7181 257.437 92.812 259.25 92.1714ZM150.341 90.659C151.373 87.9042 151.149 87.5402 149.36 89.0619C147.533 90.6156 147.173 92.4403 148.693 92.4403C149.232 92.4403 149.974 91.6387 150.341 90.659ZM182.922 89.3434C183.522 87.6402 185.043 84.3129 186.303 81.9496C187.562 79.5862 188.323 77.3762 187.993 77.0384C186.875 75.8921 168.589 79.1168 168.643 80.4508C168.802 84.3369 172.713 89.7156 176.292 90.9691C181.62 92.8354 181.699 92.8159 182.922 89.3434ZM214.17 84.5315C211.207 81.4489 208.411 78.9268 207.956 78.9268C207.501 78.9268 206.616 79.91 205.988 81.1118C204.981 83.0397 205.652 83.7615 211.685 87.2459C215.446 89.4179 218.756 90.9568 219.04 90.6656C219.324 90.3744 217.133 87.614 214.17 84.5315ZM167.492 87.4257C167.492 87.1452 166.918 85.6249 166.216 84.0473C164.684 80.6004 163.01 80.4181 160.367 83.4101C158.46 85.5697 158.481 85.6756 161.021 86.7171C163.824 87.8662 167.492 88.2679 167.492 87.4257ZM270.964 86.7134C273.18 85.4977 273.179 85.4761 270.7 82.7719C268.079 79.9131 264.826 79.2219 263.595 81.2624C263.194 81.9276 263.993 83.7013 265.37 85.2038C268.266 88.3625 268.059 88.3066 270.964 86.7134ZM227.034 82.0612C226.245 81.2531 225.733 81.1866 225.733 81.8922C225.733 83.3954 227.033 84.7271 227.766 83.9756C228.079 83.6556 227.749 82.7941 227.034 82.0612ZM152.727 81.9586C153.031 81.1486 152.528 77.2212 151.61 73.2311C148.24 58.5786 149.845 49.1473 156.644 43.651L160.349 40.6567L157.053 37.9395C153.198 34.7617 152.107 35.0898 152.107 39.427C152.107 46.3972 140.555 56.0097 127.118 60.2211L121.887 61.8607L129.113 61.2402C133.448 60.868 137.24 61.1134 138.589 61.8535C140.944 63.145 143.316 70.509 143.316 76.5297C143.316 78.379 144.093 80.6884 145.043 81.6617C147.137 83.8076 151.965 83.9941 152.727 81.9586ZM203.206 78.9268C203.598 78.2769 202.58 77.808 200.798 77.8179C198.401 77.8313 198.08 78.0792 199.36 78.9268C201.471 80.325 202.363 80.325 203.206 78.9268ZM159.082 75.83C160.498 72.9768 160.334 72.1127 157.004 64.8502L153.39 56.9673L153.325 61.4719C153.239 67.3944 155.66 78.9268 156.989 78.9268C157.295 78.9268 158.237 77.5332 159.082 75.83ZM252.107 76.7692C252.107 74.6213 236.862 64.2062 227.656 60.0644L224.634 58.7048L224.659 63.4667C224.672 66.0858 225.637 70.3823 226.803 73.0146L228.923 77.8007H240.515C246.89 77.8007 252.107 77.3365 252.107 76.7692ZM176.102 74.8335C185.427 73.7668 185.809 73.149 179.87 68.7381C169.961 61.3795 170.216 61.4133 167.602 67.1135C164.425 74.0391 164.719 77.5738 168.352 76.1451C169.19 75.8154 172.678 75.2252 176.102 74.8335ZM216.942 75.723C216.942 75.1996 215.923 73.8262 214.677 72.6709C212.739 70.8733 212.266 70.8075 211.397 72.2148C209.57 75.1759 209.744 75.3352 216.118 76.5212C216.571 76.6056 216.942 76.2463 216.942 75.723ZM222.937 72.0285C222.058 69.4731 221.338 64.9123 221.338 61.8933C221.338 58.8744 220.928 56.4043 220.427 56.4043C219.926 56.4043 218.367 58.9178 216.963 61.9898L214.41 67.5753L218.148 72.0296C223.221 78.0729 225.018 78.0724 222.937 72.0285ZM261.997 75.7801C261.997 74.6387 246.135 62.6076 236.439 56.3957C230.328 52.4801 228.723 51.8848 227.374 53.0328C224.874 55.1582 225.267 55.7005 231.606 58.8866C238.178 62.1896 247.143 67.9668 253.755 73.1598C257.923 76.4333 261.997 77.7284 261.997 75.7801ZM283.975 72.7246C294.713 70.3773 304.915 66.5601 305.643 64.6179C307.037 60.8933 296.309 54.2314 279.524 48.3995C270.793 45.3659 267.478 44.7838 258.7 44.7441C246.888 44.6906 237.084 45.9794 238.513 47.3981C239.039 47.9207 244.415 50.3669 250.459 52.8341C262.395 57.7065 272.959 60.347 276.607 59.3694C277.877 59.0292 279.546 59.2873 280.318 59.9431C282.253 61.5892 279.861 66.1706 274.713 70.6765C270.173 74.651 269.79 75.8064 273.261 75.0588C274.621 74.7659 279.442 73.7155 283.975 72.7246ZM202.656 73.8852C202.656 73.5898 201.378 72.4897 199.815 71.4405C197.453 69.8543 196.817 69.7934 196.042 71.0792C195.529 71.9297 195.353 73.0298 195.651 73.5239C196.223 74.4728 202.656 74.8046 202.656 73.8852ZM209.25 67.7318C209.25 65.4591 201.655 59.225 200.44 60.5006C199.931 61.0348 199.236 62.7387 198.894 64.2872C198.383 66.6032 199.002 67.628 202.388 70.0657C206.065 72.7136 206.649 72.8405 207.876 71.2581C208.632 70.2842 209.25 68.6974 209.25 67.7318ZM270.651 68.3716L275.368 63.447L271.155 62.6858C264.831 61.5431 257.19 58.8683 244.699 53.4254C238.51 50.7282 232.947 48.5214 232.337 48.5214C229.606 48.5214 231.759 50.7962 238.096 54.6074C241.873 56.8792 249.415 62.0089 254.854 66.0068C260.294 70.0046 265.012 73.2803 265.34 73.2859C265.667 73.2915 268.057 71.0801 270.651 68.3716ZM193.043 69.182C194.186 66.6115 194.093 66.0214 192.379 64.959C191.284 64.2798 187.418 61.5322 183.788 58.8531C177.467 54.1877 177.1 54.0644 175.087 55.9308C173.932 57.0026 172.986 58.2743 172.986 58.7568C172.986 59.7627 189.493 72.1701 190.832 72.1701C191.317 72.1701 192.312 70.8254 193.043 69.182ZM166.333 59.2196C166.364 58.1457 159.5 53.0259 158.029 53.0259C157.035 53.0259 158.303 58.8893 160.39 63.9458L162.158 68.2286L164.229 64.2872C165.369 62.1194 166.315 59.839 166.333 59.2196ZM196.618 59.7584C197.203 57.0293 196.839 55.9165 194.782 54.1367C193.371 52.9162 191.164 51.6207 189.877 51.2577C186.419 50.2823 181.228 51.1372 181.228 52.6821C181.228 54.1475 192.513 62.9082 194.602 63.0647C195.309 63.1177 196.217 61.6299 196.618 59.7584ZM214.179 59.5011C215.653 55.9654 215.605 55.7984 212.752 54.5804C211.128 53.887 207.945 52.9772 205.678 52.5587C202.171 51.911 201.557 52.0987 201.557 53.8195C201.557 56.0015 208.885 63.0494 211.226 63.1188C212.011 63.142 213.339 61.5141 214.179 59.5011ZM169.164 47.8021C163.895 43.679 162.287 43.2852 159.455 45.4246C157.788 46.6842 158.197 47.3311 163.339 51.5764L169.085 56.3207L171.543 53.954L174.002 51.5873L169.164 47.8021ZM224.634 49.4323C224.634 47.8204 222.694 48.4627 222.005 50.3027C220.803 53.5109 221.374 54.7608 223.021 52.5291C223.908 51.3269 224.634 49.9333 224.634 49.4323ZM218.056 51.0552C218.065 50.5907 218.347 49.1561 218.685 47.8672C219.204 45.8848 218.292 45.0607 212.763 42.5181C204.963 38.9309 204.17 38.8657 202.695 41.6906C200.623 45.6578 201.319 48.4231 204.579 49.1799C206.242 49.5657 209.085 50.2898 210.898 50.789C215.264 51.9911 218.038 52.0942 218.056 51.0552ZM180.219 48.5214C181.076 48.5214 181.777 48.096 181.777 47.576C181.777 46.2453 177.238 44.282 172.26 43.4598L168.041 42.763L171.869 46.225C173.974 48.1291 176.363 49.4247 177.178 49.1042C177.993 48.7837 179.362 48.5214 180.219 48.5214ZM227.931 46.8987C227.931 46.6255 227.437 46.0889 226.832 45.7061C226.228 45.3233 225.733 45.5468 225.733 46.2027C225.733 46.8586 226.228 47.3953 226.832 47.3953C227.437 47.3953 227.931 47.1718 227.931 46.8987Z" fill="#007BFF"/>
</g>
<defs>
<filter id="filter0_d_1032_262" x="19.7188" y="28.4165" width="460.564" height="201.167" filterUnits="userSpaceOnUse" color-interpolation-filters="sRGB">
<feFlood flood-opacity="0" result="BackgroundImageFix"/>
<feColorMatrix in="SourceAlpha" type="matrix" values="0 0 0 0 0 0 0 0 0 0 0 0 0 0 0 0 0 0 127 0" result="hardAlpha"/>
<feOffset dy="4"/>
<feGaussianBlur stdDeviation="2"/>
<feColorMatrix type="matrix" values="0 0 0 0 0 0 0 0 0 0 0 0 0 0 0 0 0 0 0.25 0"/>
<feBlend mode="normal" in2="BackgroundImageFix" result="effect1_dropShadow_1032_262"/>
<feBlend mode="normal" in="SourceGraphic" in2="effect1_dropShadow_1032_262" result="shape"/>
</filter>
</defs>
</svg>
