<svg width="150" height="5" viewBox="0 0 150 5" fill="none" xmlns="http://www.w3.org/2000/svg">
<path d="M149.494 2.57548C146.522 1.63035 143.221 1.7214 140.08 1.73867C138.934 1.74417 138.905 3.16186 140.051 3.21053C143.128 3.33927 146.199 3.69252 149.274 3.77573C150.158 3.80085 150.238 2.81254 149.494 2.57548ZM129.653 2.39571C126.732 1.95769 123.597 2.73405 120.813 3.37382C120.307 3.48921 120.495 4.09208 121.014 4.02771C123.873 3.67054 126.794 3.62109 129.635 3.22309C130.125 3.1548 130.155 2.47185 129.653 2.39571ZM113.19 2.0409C110.907 1.544 108.126 1.8737 105.781 1.9208C105.064 1.93571 105.046 2.79998 105.762 2.8408C108.103 2.97111 110.869 3.4005 113.17 2.98603C113.739 2.88476 113.754 2.16415 113.19 2.0409V2.0409ZM94.0703 1.69708C91.9054 1.22451 89.5231 1.42311 87.3198 1.58875C86.6031 1.64213 86.5874 2.42868 87.3009 2.50797C89.4964 2.75289 91.8685 3.03705 94.0507 2.64299C94.6182 2.54015 94.6331 1.81953 94.0703 1.69708ZM76.8957 1.47727C73.4938 0.901876 69.6594 1.3658 66.2166 1.45451C65.8822 1.46314 65.8744 1.86349 66.208 1.8839C69.6444 2.09585 73.4569 2.69715 76.8801 2.245C77.344 2.18455 77.3565 1.5542 76.8957 1.47727ZM55.9106 1.13972C54.7393 0.594156 53.3654 0.648323 52.0506 0.740952C50.6389 0.840646 49.5983 1.29123 48.3399 1.67901C48.0599 1.76536 48.1446 2.12018 48.4595 2.06602C49.5783 1.87291 50.8861 1.86113 52.0298 1.77714C53.2519 1.68765 54.4466 1.93728 55.654 1.87762C56.1124 1.85564 56.3522 1.34461 55.9106 1.13972ZM40.4957 1.33127C38.9234 1.16956 37.3881 1.21823 35.8373 1.47649C34.39 1.7167 33.8406 2.18298 33.0611 3.0975C32.9551 3.22074 33.1856 3.3848 33.3187 3.26941C33.9007 2.75445 35.2605 2.48678 36.104 2.34391C37.523 2.10527 39.038 2.22695 40.4794 2.12882C41.1 2.08643 41.1148 1.39564 40.4957 1.33127ZM24.7987 2.05032C23.4843 1.68766 22.0477 1.7897 20.6781 1.79284C19.8511 1.79441 19.0331 1.8054 18.2091 1.8525C17.9252 1.8682 17.5892 1.84073 17.3703 2.01186C17.3482 2.0307 17.3374 2.03933 17.3225 2.05346C17.3206 2.05346 17.3138 2.05503 17.3126 2.05503C17.1832 2.05738 17.0891 2.12019 17.0373 2.20732C17.0315 2.21753 17.0253 2.22772 17.0188 2.23871C17.0109 2.25912 17.0048 2.27875 17.0005 2.29994C16.9958 2.31878 16.9928 2.33527 16.9925 2.35411C16.9922 2.37217 16.9944 2.391 16.9977 2.40906C17.0017 2.43025 17.0069 2.45067 17.014 2.47029C17.0204 2.48207 17.0256 2.49227 17.0315 2.50169C17.079 2.59118 17.171 2.6579 17.2988 2.66497C17.3019 2.66575 17.3059 2.66654 17.309 2.66732C17.5229 2.84395 17.7447 2.85807 18.0368 2.88554C18.8325 2.95933 19.6202 3.00879 20.4208 3.03941C21.8586 3.09436 23.3825 3.27098 24.78 2.93814C25.3126 2.81176 25.3252 2.19712 24.7987 2.05032V2.05032ZM12.2083 3.68546C8.50991 4.57564 4.00818 4.10072 0.21126 3.80635C-0.0750868 3.78437 -0.0680214 3.45074 0.218326 3.43897C4.11486 3.27569 8.22073 2.82432 12.1016 2.93029C12.6385 2.94442 12.702 3.56692 12.2083 3.68546" fill="#007BFF"/>
</svg>
