<svg width="150" height="21" viewBox="0 0 150 21" fill="none" xmlns="http://www.w3.org/2000/svg">
<path d="M140.401 1.26577C137.322 1.46519 135.215 3.63885 133.575 6.02107C132.348 7.80421 132.661 10.4249 132.053 12.4299C131.71 13.5599 126.886 9.01567 126.516 8.41741C125.683 7.07133 125.487 5.42365 124.756 4.02938C123.337 1.32643 121.125 0.802949 118.233 1.19846C113.435 1.85405 112.387 8.52627 111.602 12.2064C111.266 13.7834 111.027 17.899 108.641 16.616C105.052 14.685 104.449 10.7249 102.902 7.37877C101.786 4.96414 100.372 2.99572 97.6437 2.41657C95.1019 1.87731 92.4266 3.2234 91.2942 5.46104C90.081 7.85739 91.2785 12.3293 88.9283 14.0153C86.4611 15.7834 84.2459 14.2687 82.8262 12.1598C80.7807 9.12203 80.1525 4.43319 77.1505 2.12575C73.591 -0.609607 70.2765 5.4145 68.9369 7.73773C67.7418 9.81002 67.7426 12.5205 66.9817 14.7623C65.8717 18.0294 61.9764 16.1557 61.1295 13.648C60.4354 11.5923 60.5296 9.23006 60.0593 7.10292C59.2435 3.41783 53.8311 -1.03005 50.0092 1.33389C46.7099 3.37378 46.0002 8.95585 44.6432 12.233C43.7426 14.4083 42.323 16.4415 39.6952 15.8964C35.1519 14.955 35.078 9.3015 33.3922 5.92717C31.1779 1.4926 24.2892 -0.219915 22.2764 5.27822C21.2268 8.14487 21.9142 10.8445 20.3864 13.6605C19.3883 15.4984 17.2365 20.1349 15.4391 16.9093C13.1892 12.8736 13.1002 7.53998 9.8531 4.02606C7.74583 1.74604 4.56075 1.67373 2.2673 3.78092C0.252062 5.63219 -0.118492 9.07549 0.0287399 11.638C0.0821362 12.5653 1.46117 12.5553 1.53294 11.638C1.70538 9.44525 2.32187 6.90682 3.76875 5.20262C6.86275 1.5599 9.50343 7.39374 10.3006 9.50591C11.48 12.631 12.0806 18.6758 15.4688 20.3709C19.4088 22.3427 23.4706 14.0751 23.9795 11.5757C24.4966 9.0273 23.4626 4.1781 27.271 4.13572C31.8867 4.08337 32.4377 11.309 34.0661 14.4324C36.123 18.3776 41.7626 19.7926 44.9444 16.4739C48.0234 13.2624 48.2265 8.24708 50.3883 4.51462C51.9769 1.77178 54.4875 3.75267 56.2531 5.28155C59.3293 7.94545 57.473 13.4744 59.9164 16.7216C61.2756 18.528 64.3168 19.3065 66.4469 18.7789C68.7218 18.2155 69.5243 15.4104 69.9656 13.471C70.6267 10.5645 73.8203 -0.320454 77.1733 5.83992C78.9903 9.17769 79.9892 13.9006 83.4332 16.061C86.721 18.1249 91.7717 16.4099 92.3386 12.3651C92.5428 10.9135 92.5114 9.44941 92.6009 7.98867C92.8129 4.55617 96.6072 2.9118 99.2809 5.22339C101.89 7.48098 102.125 12.0576 103.826 14.9625C105.46 17.7535 110.353 21.132 112.46 17.1046C114.522 13.1627 113.093 5.12118 118.252 3.36879C122.838 1.81083 123.144 8.57362 125.063 11.1361C126.434 12.9683 129.929 15.9422 132.526 15.4503C134.328 15.1096 135.082 13.5242 135.294 11.8541C135.751 8.2421 136.236 2.9575 141.569 3.85904C145.874 4.58609 147.054 9.89893 146.501 13.4345C146.188 15.437 149.275 16.2903 149.718 14.2737C151.063 8.15318 147.545 0.802123 140.401 1.26577" fill="#007BFF"/>
</svg>
